<?xml version="1.0" encoding="utf-8"?>
<!-- Generator: Adobe Illustrator 16.0.0, SVG Export Plug-In . SVG Version: 6.00 Build 0)  -->
<!DOCTYPE svg PUBLIC "-//W3C//DTD SVG 1.1//EN" "http://www.w3.org/Graphics/SVG/1.1/DTD/svg11.dtd">
<svg version="1.1" xmlns="http://www.w3.org/2000/svg" xmlns:xlink="http://www.w3.org/1999/xlink" x="0px" y="0px" width="200px"
	 height="100px" viewBox="0 0 200 100" enable-background="new 0 0 200 100" xml:space="preserve">
<g id="Layer_2" display="none">
	<rect display="inline" width="200" height="100"/>
</g>
<g id="Layer_1" display="none">
	<g display="inline">
		<path fill="#FFFFFF" d="M50.784,46.883H37.329c-0.347,0-0.628,0.282-0.628,0.629v6.578c0,0.347,0.281,0.63,0.628,0.63h5.249v8.172
			c0,0-1.179,0.402-4.437,0.402c-3.844,0-9.214-1.405-9.214-13.213c0-11.811,5.592-13.364,10.841-13.364
			c4.544,0,6.502,0.8,7.748,1.186c0.392,0.12,0.753-0.27,0.753-0.617l1.501-6.355c0-0.163-0.055-0.358-0.24-0.491
			c-0.506-0.361-3.592-2.088-11.389-2.088c-8.982,0-18.195,3.821-18.195,22.191s10.548,21.107,19.438,21.107
			c7.36,0,11.825-3.146,11.825-3.146c0.184-0.102,0.204-0.358,0.204-0.477V47.512C51.412,47.165,51.13,46.883,50.784,46.883z"/>
		<path fill="#FFFFFF" d="M120.121,30.552c0-0.35-0.277-0.632-0.625-0.632h-7.575c-0.346,0-0.627,0.282-0.627,0.632
			c0,0.001,0.002,14.64,0.002,14.64H99.487v-14.64c0-0.35-0.279-0.632-0.625-0.632h-7.575c-0.345,0-0.626,0.282-0.626,0.632v39.641
			c0,0.35,0.281,0.635,0.626,0.635h7.575c0.346,0,0.625-0.285,0.625-0.635V53.236h11.809c0,0-0.021,16.955-0.021,16.956
			c0,0.35,0.281,0.635,0.628,0.635h7.594c0.347,0,0.624-0.285,0.625-0.635V30.552z"/>
		<g>
			<g>
				<path fill="#FFFFFF" d="M65.079,35.753c0-2.728-2.187-4.932-4.886-4.932c-2.695,0-4.884,2.205-4.884,4.932
					c0,2.725,2.188,4.936,4.884,4.936C62.892,40.689,65.079,38.479,65.079,35.753z"/>
				<path fill="#FFFFFF" d="M64.537,61.83c0-1.016,0-18.298,0-18.298c0-0.348-0.28-0.631-0.627-0.631h-7.551
					c-0.347,0-0.657,0.357-0.657,0.705c0,0,0,22.019,0,26.216c0,0.771,0.48,1,1.102,1c0,0,3.223,0,6.804,0
					c0.747,0,0.93-0.367,0.93-1.012C64.537,68.404,64.537,62.899,64.537,61.83z"/>
			</g>
		</g>
		<path fill="#FFFFFF" d="M148.911,42.96h-7.518c-0.345,0-0.625,0.285-0.625,0.634v19.437c0,0-1.91,1.397-4.621,1.397
			c-2.71,0-3.43-1.229-3.43-3.884c0-2.658,0-16.951,0-16.951c0-0.35-0.279-0.634-0.625-0.634h-7.63
			c-0.344,0-0.626,0.285-0.626,0.634c0,0,0,10.351,0,18.234c0,7.884,4.394,9.813,10.438,9.813c4.959,0,8.957-2.74,8.957-2.74
			s0.19,1.444,0.276,1.615s0.311,0.344,0.554,0.344l4.854-0.022c0.344,0,0.626-0.284,0.626-0.633l-0.002-26.61
			C149.539,43.245,149.258,42.96,148.911,42.96z"/>
		<path fill="#FFFFFF" d="M169.458,42.07c-4.27,0-7.174,1.905-7.174,1.905V30.552c0-0.35-0.28-0.632-0.625-0.632h-7.598
			c-0.345,0-0.626,0.282-0.626,0.632v39.641c0,0.35,0.281,0.635,0.627,0.635c0.001,0,5.27,0,5.271,0c0.237,0,0.417-0.123,0.55-0.337
			c0.131-0.213,0.319-1.828,0.319-1.828s3.106,2.944,8.987,2.944c6.904,0,10.863-3.502,10.863-15.721
			C180.054,43.667,173.73,42.07,169.458,42.07z M166.493,64.404c-2.608-0.079-4.377-1.263-4.377-1.263V50.589
			c0,0,1.745-1.07,3.886-1.261c2.707-0.243,5.315,0.575,5.315,7.033C171.317,63.171,170.141,64.515,166.493,64.404z"/>
		<path fill="#FFFFFF" d="M86.31,42.897h-5.683c0,0-0.008-7.506-0.008-7.507c0-0.285-0.146-0.426-0.475-0.426H72.4
			c-0.301,0-0.463,0.132-0.463,0.422v7.758c0,0-3.881,0.937-4.143,1.012c-0.261,0.076-0.454,0.317-0.454,0.604v4.875
			c0,0.351,0.28,0.633,0.626,0.633h3.97c0,0,0,5.099,0,11.729c0,8.711,6.11,9.566,10.234,9.566c1.884,0,4.137-0.605,4.51-0.742
			c0.225-0.083,0.355-0.316,0.355-0.568l0.006-5.363c0-0.35-0.295-0.633-0.628-0.633c-0.332,0-1.179,0.135-2.051,0.135
			c-2.791,0-3.737-1.298-3.737-2.978c0-1.679,0-11.146,0-11.146h5.683c0.346,0,0.627-0.283,0.627-0.633v-6.106
			C86.937,43.179,86.656,42.897,86.31,42.897z"/>
	</g>
</g>
<g id="Layer_3">
	<g id="g4109" transform="matrix(1.25,0,0,-1.25,-45.762375,730.49)">
		<g>
			<defs>
				<polygon id="SVGID_1_" points="42.543,520.392 192.288,520.392 192.288,568.925 42.543,568.925 42.543,520.392 				"/>
			</defs>
			<clipPath id="SVGID_2_">
				<use xlink:href="#SVGID_1_"  overflow="visible"/>
			</clipPath>
			<g id="g4701" clip-path="url(#SVGID_2_)">
				<path fill="#FFFFFF" d="M91.077,544.659c0-13.402-10.864-24.266-24.266-24.266c-13.402,0-24.267,10.864-24.267,24.266
					c0,13.403,10.865,24.266,24.267,24.266C80.212,568.925,91.077,558.062,91.077,544.659 M57.691,541.765
					c-1.245-1.278-2.8-2.087-4.42-2.087c-1.402,0-2.21,0.778-2.21,1.992c0,1.525,1.152,3.02,6.63,3.548V541.765z M60.461,537.689
					v10.394c0,3.298-1.744,4.76-5.353,4.76c-2.305,0-3.986-0.53-5.759-1.245l0.373-2.396c1.618,0.715,3.33,1.276,5.137,1.276
					c1.711,0,2.832-0.653,2.832-2.52v-0.623c-6.195-0.653-9.368-2.116-9.368-5.819c0-2.52,1.679-4.141,4.357-4.141
					c2.429,0,4.047,1.091,5.23,2.303l0.311-1.989H60.461z M66.911,546.464c0.996,1.959,3.082,3.609,5.541,3.734l-0.435,2.645
					c-2.428-0.125-4.14-1.649-5.199-3.331l-0.467,3.019H64.14v-14.843h2.771V546.464 M79.446,537.375
					c3.828,0,5.853,1.744,5.853,4.452c0,2.831-1.652,3.891-5.325,4.823c-2.334,0.592-3.08,1.152-3.08,2.147
					c0,1.059,0.87,1.712,2.552,1.712c1.556,0,3.207-0.529,4.514-1.274l0.435,2.613c-1.4,0.621-3.05,0.996-4.886,0.996
					c-3.237,0-5.23-1.743-5.23-4.107c0-2.647,1.4-3.705,4.887-4.577c2.677-0.652,3.518-1.152,3.518-2.52
					c0-1.245-1.121-1.961-3.02-1.961c-2.023,0-3.829,0.748-5.23,1.712l-0.405-2.614C75.306,538.061,77.485,537.375,79.446,537.375"
					/>
				<g id="g4723" transform="translate(117.2196,552.9998)">
					<path id="path4725" fill="#FFFFFF" d="M6.304-15.611c-3.586,0-6.364,2.689-6.364,7.35c0,4.749,2.868,7.379,6.453,7.379
						c1.913,0,3.436-0.598,4.602-1.434l-0.33-1.972C9.292-3.153,7.978-2.585,6.334-2.585c-2.689,0-4.391-2.181-4.391-5.646
						c0-3.495,1.732-5.645,4.6-5.645c1.494,0,2.837,0.417,4.302,1.672l0.268-1.792C9.74-15.072,8.215-15.611,6.304-15.611"/>
				</g>
				<g id="g4727" transform="translate(107.455,556.4199)">
					<path id="path4729" fill="#FFFFFF" d="M6.26-15.595c-1.463-1.255-2.809-1.673-4.302-1.673c-2.6,0-4.261,1.772-4.55,4.706h8.374
						l0.298,1.852h-8.678c0.277,2.93,1.902,4.735,4.346,4.735c1.643,0,2.956-0.567,4.332-1.704L6.41-5.707
						c-1.165,0.837-2.689,1.434-4.6,1.434c-3.586,0-6.452-2.629-6.452-7.379c0-4.661,2.778-7.348,6.362-7.348
						c1.912,0,3.436,0.537,4.811,1.612L6.26-15.595z"/>
				</g>
				<g id="g4731" transform="translate(134.7344,553.2984)">
					<path id="path4733" fill="#FFFFFF" d="M6.385-15.609v9.739c0,1.822-0.838,2.927-2.63,2.927c-1.493,0-3.016-0.925-4.571-2.449
						v-10.217h-1.97v21.09l1.97,0.36v-9.323c1.465,1.286,3.048,2.302,4.96,2.302c2.806,0,4.213-1.613,4.213-4.302v-10.127H6.385z"/>
				</g>
				<g id="g4735" transform="translate(149.5426,553.2984)">
					<path id="path4737" fill="#FFFFFF" d="M6.453-15.609v9.739c0,1.822-0.838,2.927-2.63,2.927c-1.494,0-3.017-0.925-4.57-2.449
						v-10.217h-1.972v14.13h1.525l0.327-2.091c1.553,1.374,3.167,2.39,5.08,2.39c2.808,0,4.211-1.613,4.211-4.332v-10.097H6.453z"/>
				</g>
				<path id="path4739" fill="#FFFFFF" d="M161.699,551.818h1.942v-14.129h-1.942V551.818z M162.685,555.195
					c-0.775,0-1.433,0.658-1.433,1.433c0,0.777,0.658,1.435,1.433,1.435c0.777,0,1.405-0.658,1.405-1.435
					C164.09,555.853,163.461,555.195,162.685,555.195"/>
				<g id="g4741" transform="translate(167.203,552.9998)">
					<path id="path4743" fill="#FFFFFF" d="M6.535-15.611c-3.586,0-6.364,2.689-6.364,7.35c0,4.749,2.869,7.379,6.455,7.379
						c1.911,0,3.433-0.598,4.6-1.434l-0.33-1.972C9.523-3.153,8.207-2.585,6.565-2.585c-2.689,0-4.392-2.181-4.392-5.646
						c0-3.495,1.734-5.645,4.6-5.645c1.494,0,2.841,0.417,4.305,1.672l0.267-1.792C9.969-15.072,8.446-15.611,6.535-15.611"/>
				</g>
				<g id="g4745" transform="translate(183.7366,560.7621)">
					<path id="path4747" fill="#FFFFFF" d="M6.609-15.575c-5.558-0.569-7.111-1.912-7.111-3.825c0-1.522,1.045-2.3,2.539-2.3
						c1.525,0,3.198,0.836,4.572,2.122V-15.575z M7.058-23.073l-0.33,1.881c-1.314-1.225-2.958-2.181-4.989-2.181
						c-2.448,0-4.213,1.345-4.213,3.853c0,3.317,2.691,4.87,9.083,5.498v0.926c0,1.912-1.134,2.719-2.928,2.719
						c-1.673,0-3.314-0.509-4.869-1.255L-1.456-9.87C0.186-9.153,1.798-8.645,3.8-8.645c3.139,0,4.752-1.464,4.752-4.361v-10.067
						H7.058z"/>
				</g>
				<g id="g4749" transform="translate(92.8881,553.0259)">
					<path id="path4751" fill="#FFFFFF" d="M6.192-15.61c-2.221,0-3.692,0.87-3.692,3.481v9.275H0.31v1.68h2.191v4.923l1.951,0.33
						v-5.254h3.271l0.27-1.68H4.451v-8.944c0-1.442,0.57-2.073,2.101-2.073c0.45,0,0.99,0.092,1.321,0.152l0.3-1.652
						C7.754-15.49,7.032-15.61,6.192-15.61"/>
				</g>
			</g>
		</g>
	</g>
</g>
<g id="Layer_4" display="none">
	<g display="inline">
		<defs>
			<rect id="SVGID_3_" x="-32.292" y="-17.5" width="264.25" height="135.686"/>
		</defs>
		<clipPath id="SVGID_4_">
			<use xlink:href="#SVGID_3_"  overflow="visible"/>
		</clipPath>
		<path clip-path="url(#SVGID_4_)" fill="#FFFFFF" d="M69.986,31.198c1.699,0,3.113,1.416,3.113,3.114
			c0,1.698-1.414,3.112-3.113,3.112c-1.698,0-3.112-1.414-3.112-3.112C66.874,32.614,68.288,31.198,69.986,31.198 M69.986,66.746
			c-1.585,0-2.66-1.189-2.66-2.66V43.933c0-1.47,1.133-2.659,2.66-2.659c1.529,0,2.66,1.189,2.66,2.659v20.153
			C72.646,65.557,71.571,66.746,69.986,66.746"/>
		<path clip-path="url(#SVGID_4_)" fill="#FFFFFF" d="M89.175,66.974c-3.566,0-6.736-1.134-9-2.888
			c-0.792-0.624-1.132-1.473-1.132-2.209c0-1.131,0.906-1.867,2.038-1.867c0.905,0,1.472,0.339,2.095,0.792
			c1.528,1.134,3.679,2.207,6.396,2.207c3.057,0,4.698-1.132,4.698-2.885c0-1.924-1.585-2.66-5.548-3.738
			c-6.963-1.865-9.51-4.245-9.51-8.32c0-4.246,3.906-7.02,10.02-7.02c2.32,0,4.924,0.567,7.018,1.585
			c1.528,0.736,2.604,1.641,2.604,2.774c0,1.019-0.565,1.981-2.037,1.981c-0.735,0-1.472-0.339-2.321-0.793
			c-1.585-0.848-3.34-1.298-5.377-1.298c-2.83,0-4.755,0.734-4.755,2.714c0,1.926,1.697,2.548,5.774,3.737
			c6.112,1.753,9.283,3.394,9.283,7.98C99.421,63.916,95.912,66.974,89.175,66.974"/>
		<path clip-path="url(#SVGID_4_)" fill="#FFFFFF" d="M114.799,66.974c-3.565,0-6.736-1.134-9.001-2.888
			c-0.792-0.624-1.132-1.473-1.132-2.209c0-1.131,0.906-1.867,2.039-1.867c0.905,0,1.471,0.339,2.094,0.792
			c1.527,1.134,3.678,2.207,6.396,2.207c3.057,0,4.697-1.132,4.697-2.885c0-1.924-1.584-2.66-5.546-3.738
			c-6.961-1.865-9.508-4.245-9.508-8.32c0-4.246,3.904-7.02,10.018-7.02c2.321,0,4.924,0.567,7.019,1.585
			c1.529,0.736,2.604,1.641,2.604,2.774c0,1.019-0.567,1.981-2.039,1.981c-0.734,0-1.471-0.339-2.319-0.793
			c-1.585-0.848-3.341-1.298-5.378-1.298c-2.83,0-4.754,0.734-4.754,2.714c0,1.926,1.696,2.548,5.773,3.737
			c6.112,1.753,9.282,3.394,9.282,7.98C125.044,63.916,121.534,66.974,114.799,66.974"/>
		<path clip-path="url(#SVGID_4_)" fill="#FFFFFF" d="M130.183,55.14V43.933c0-1.47,1.19-2.66,2.66-2.66
			c1.472,0,2.661,1.19,2.661,2.66v11.832c0,3.567,2.771,6.339,6.51,6.339c3.735,0,6.565-2.771,6.565-6.339V43.933
			c0-1.47,1.189-2.66,2.661-2.66c1.47,0,2.659,1.19,2.659,2.66V55.14c0,6.625-5.038,11.834-11.886,11.834
			C135.164,66.974,130.183,61.765,130.183,55.14"/>
		<path clip-path="url(#SVGID_4_)" fill="#FFFFFF" d="M159.791,55.14V43.933c0-1.47,1.188-2.66,2.662-2.66
			c1.47,0,2.658,1.19,2.658,2.66v11.832c0,3.567,2.775,6.339,6.511,6.339s6.565-2.771,6.565-6.339V43.933
			c0-1.47,1.188-2.66,2.66-2.66c1.474,0,2.66,1.19,2.66,2.66V55.14c0,6.625-5.035,11.834-11.886,11.834
			S159.791,61.765,159.791,55.14"/>
		<path clip-path="url(#SVGID_4_)" fill="#FFFFFF" d="M35.826,40.537c-5.442-0.051-9.896,4.318-9.947,9.76
			c-0.051,5.443,4.318,9.896,9.761,9.946c5.442,0.052,9.895-4.32,9.947-9.76C45.638,45.041,41.268,40.588,35.826,40.537
			 M35.686,55.379c-2.755-0.026-4.969-2.279-4.942-5.036c0.026-2.755,2.281-4.969,5.036-4.942s4.969,2.281,4.942,5.036
			C40.696,53.192,38.441,55.406,35.686,55.379"/>
		<path clip-path="url(#SVGID_4_)" fill="#FFFFFF" d="M35.593,31.09c-0.031,0-0.062,0.001-0.093,0.001v-0.002H23.039H18.94h-1.108
			c-0.886,0-1.61,0.726-1.61,1.611v0.987v3.172V50.46c0,10.7,8.671,19.371,19.371,19.371c10.699,0,19.371-8.671,19.371-19.371
			C54.963,39.763,46.291,31.09,35.593,31.09 M22.284,50.193c0.07-7.428,6.149-13.392,13.576-13.322
			c7.428,0.07,13.393,6.149,13.322,13.575c-0.069,7.427-6.148,13.392-13.575,13.323C28.18,63.696,22.214,57.62,22.284,50.193"/>
	</g>
</g>
<g id="Layer_5" display="none">
	<g display="inline">
		<g>
			<g>
				<polygon fill="#FFFFFF" points="2.163,32.481 9.836,32.481 9.836,60.435 24.047,60.435 24.047,67.518 2.163,67.518 				"/>
				<g>
					<path fill="#FFFFFF" d="M27.437,43.764h7.377v23.744h-7.377V43.764z M31.126,31.962c2.362,0,4.279,1.917,4.279,4.28
						c0,2.362-1.917,4.273-4.279,4.273c-2.36,0-4.277-1.912-4.277-4.273C26.849,33.879,28.766,31.962,31.126,31.962"/>
				</g>
				<polygon fill="#FFFFFF" points="65.651,32.481 73.022,32.481 73.022,53.42 81.378,43.753 90.418,43.753 80.745,54.746 
					90.215,67.518 80.947,67.518 73.118,55.781 73.022,55.781 73.022,67.518 65.651,67.518 				"/>
				<path fill="#FFFFFF" d="M38.894,43.77h7.081v3.243h0.099c0.983-1.867,3.393-3.834,6.982-3.834c7.475,0,8.852,4.918,8.852,11.311
					v13.019h-7.376V55.964c0-2.753-0.05-6.292-3.837-6.292c-3.835,0-4.424,2.999-4.424,6.096v11.74h-7.376V43.77z"/>
				<path fill="#FFFFFF" d="M105.945,52.877c0.047-2.46-1.87-4.524-4.529-4.524c-3.243,0-5.012,2.213-5.208,4.524H105.945z
					 M112.191,63.396c-2.365,3.002-6.246,4.724-10.083,4.724c-7.376,0-13.277-4.918-13.277-12.542
					c0-7.619,5.901-12.538,13.277-12.538c6.888,0,11.211,4.919,11.211,12.538v2.311H96.208c0.586,2.806,2.706,4.624,5.555,4.624
					c2.412,0,4.031-1.228,5.261-2.901L112.191,63.396z"/>
				<path fill="#FFFFFF" d="M128.687,49.506c-3.686,0-5.902,2.46-5.902,6.047c0,3.593,2.217,6.051,5.902,6.051
					c3.691,0,5.901-2.458,5.901-6.051C134.588,51.967,132.378,49.506,128.687,49.506 M141.379,67.505h-6.791v-3.149h-0.096
					c-1.136,1.724-3.985,3.738-7.328,3.738c-7.084,0-11.756-5.112-11.756-12.34c0-6.642,4.133-12.738,10.919-12.738
					c3.052,0,5.9,0.833,7.574,3.145h0.096v-13.68h7.382V67.505z"/>
			</g>
			<path fill="#FFFFFF" d="M194.827,25.123h-42.403c-2.023,0-3.669,1.606-3.669,3.587v42.577c0,1.981,1.646,3.59,3.669,3.59h42.403
				c2.03,0,3.681-1.608,3.681-3.59V28.71C198.508,26.729,196.857,25.123,194.827,25.123z M163.514,67.518h-7.386V43.775h7.386
				V67.518z M159.822,40.531c-2.37,0-4.281-1.917-4.281-4.28c0-2.362,1.911-4.279,4.281-4.279c2.36,0,4.276,1.917,4.276,4.279
				C164.099,38.614,162.183,40.531,159.822,40.531z M191.151,67.518h-7.377V55.973c0-2.753-0.049-6.296-3.836-6.296
				c-3.839,0-4.425,3.001-4.425,6.1v11.742h-7.37V43.775h7.072v3.246h0.102c0.983-1.867,3.393-3.835,6.983-3.835
				c7.47,0,8.851,4.916,8.851,11.311V67.518z"/>
		</g>
	</g>
</g>
<g id="Layer_6" display="none">
	<g id="logo-indeed-top" display="inline">
		<path fill="#FFFFFF" d="M188.129,32.039c-0.629-0.727-1.475-1.092-2.612-1.092c-1.139,0-2.009,0.388-2.614,1.188
			c-0.604,0.773-0.919,1.934-0.919,3.459v11.035c-1.402-1.55-2.855-2.663-4.33-3.413c-0.922-0.458-2.01-0.796-3.22-0.968
			c-0.703-0.096-1.429-0.146-2.225-0.146c-3.703,0-6.702,1.308-9.001,3.921c-2.275,2.614-3.413,6.244-3.413,10.911
			c0,2.204,0.291,4.261,0.87,6.149c0.582,1.886,1.401,3.53,2.518,4.936c1.113,1.403,2.444,2.466,3.969,3.242
			c1.522,0.748,3.17,1.135,4.961,1.135c0.821,0,1.595-0.07,2.321-0.215c0.484-0.075,0.942-0.194,1.404-0.342
			c1.137-0.385,2.202-0.941,3.17-1.643c0.991-0.728,1.984-1.67,2.976-2.808v0.727c0,1.379,0.339,2.419,0.991,3.169
			c0.68,0.725,1.524,1.111,2.542,1.111c1.041,0,1.886-0.361,2.541-1.063c0.65-0.727,0.991-1.79,0.991-3.218V35.208
			C189.049,33.827,188.732,32.763,188.129,32.039z M180.604,62.477c-0.654,1.403-1.523,2.445-2.587,3.122
			c-1.09,0.677-2.277,1.014-3.583,1.014h-0.021c-1.309,0-2.494-0.361-3.585-1.063c-1.088-0.726-1.957-1.791-2.588-3.195
			c-0.628-1.428-0.942-3.146-0.942-5.178c0-1.912,0.29-3.605,0.895-5.033c0.582-1.451,1.427-2.566,2.493-3.34
			c1.088-0.799,2.3-1.161,3.677-1.161h0.072c1.282,0,2.467,0.386,3.558,1.136c1.088,0.751,1.958,1.841,2.612,3.268
			c0.654,1.429,0.969,3.146,0.969,5.13C181.572,59.307,181.258,61.074,180.604,62.477z"/>
		<path fill="#FFFFFF" d="M157.495,62.792c-0.458-0.411-1.088-0.629-1.863-0.629c-0.701,0-1.233,0.17-1.619,0.483
			c-0.945,0.871-1.694,1.57-2.277,2.081c-0.577,0.485-1.232,0.968-1.934,1.426c-0.677,0.438-1.403,0.776-2.128,0.971
			c-0.753,0.217-1.548,0.313-2.444,0.313c-0.193,0-0.389,0-0.557-0.024c-1.115-0.071-2.153-0.387-3.097-0.969
			c-1.114-0.652-1.984-1.618-2.664-2.877c-0.654-1.308-0.989-2.808-1.016-4.5h14.591c1.958,0,3.483-0.292,4.55-0.824
			c1.089-0.58,1.621-1.789,1.621-3.652c0-2.033-0.532-4.019-1.572-5.977c-1.042-1.938-2.59-3.534-4.694-4.767
			c-2.084-1.233-4.574-1.84-7.503-1.84h-0.216c-2.153,0.023-4.14,0.389-5.904,1.065c-1.839,0.727-3.389,1.767-4.673,3.096
			c-1.23,1.354-2.199,2.976-2.852,4.864c-0.654,1.891-0.993,3.945-0.993,6.146c0,4.694,1.33,8.373,3.993,11.105
			c2.515,2.592,6,3.946,10.429,4.089c0.241,0.023,0.506,0.023,0.774,0.023c2.081,0,3.942-0.266,5.563-0.82
			c1.622-0.558,2.953-1.236,4.02-2.058c1.062-0.846,1.861-1.716,2.391-2.612c0.534-0.895,0.8-1.692,0.8-2.348
			C158.221,63.807,157.979,63.204,157.495,62.792z M140.073,49.12c1.187-1.283,2.711-1.912,4.574-1.912h0.025
			c1.934,0,3.508,0.628,4.694,1.886c1.186,1.261,1.888,3.172,2.056,5.736h-13.526C138.138,52.314,138.865,50.402,140.073,49.12z"/>
		<path fill="#FFFFFF" d="M125.773,62.163c-0.726,0-1.257,0.17-1.644,0.483c-0.92,0.871-1.693,1.57-2.274,2.081
			c-0.581,0.485-1.21,0.968-1.913,1.426c-0.699,0.438-1.403,0.776-2.153,0.971c-0.727,0.217-1.55,0.313-2.443,0.313
			c-0.192,0-0.387,0-0.556-0.024c-1.114-0.071-2.154-0.387-3.1-0.969c-1.086-0.652-1.982-1.618-2.634-2.877
			c-0.681-1.308-1.019-2.808-1.044-4.5h14.616c1.937,0,3.461-0.292,4.549-0.824c1.064-0.58,1.598-1.789,1.598-3.652
			c0-2.033-0.508-4.019-1.549-5.977c-1.04-1.938-2.613-3.534-4.693-4.767c-2.085-1.233-4.598-1.84-7.5-1.84h-0.243
			c-2.154,0.023-4.114,0.389-5.904,1.065c-1.842,0.727-3.39,1.767-4.647,3.096c-1.258,1.354-2.227,2.976-2.877,4.864
			c-0.655,1.891-0.994,3.945-0.994,6.146c0,4.694,1.356,8.373,4.018,11.105c2.517,2.592,5.978,3.946,10.405,4.089
			c0.267,0.023,0.507,0.023,0.772,0.023c2.104,0,3.946-0.266,5.564-0.82c1.621-0.558,2.955-1.236,4.018-2.058
			c1.089-0.846,1.862-1.716,2.396-2.612c0.531-0.895,0.8-1.692,0.8-2.348c0-0.751-0.243-1.354-0.703-1.766
			C127.155,62.381,126.521,62.163,125.773,62.163z M110.19,49.12c1.187-1.283,2.71-1.912,4.574-1.912h0.025
			c1.935,0,3.508,0.628,4.694,1.886c1.207,1.261,1.886,3.172,2.079,5.736h-13.551C108.281,52.314,109.008,50.402,110.19,49.12z"/>
		<path fill="#FFFFFF" d="M26.495,67.436V49.629c0.507,0.046,0.991,0.071,1.5,0.071c2.419,0,4.696-0.653,6.631-1.814v19.551
			c0,1.67-0.387,2.902-1.139,3.728c-0.748,0.822-1.741,1.231-2.951,1.231c-1.187,0-2.129-0.409-2.904-1.257
			C26.881,70.316,26.495,69.081,26.495,67.436L26.495,67.436z"/>
		<path fill="#FFFFFF" d="M96.787,32.039c-0.63-0.727-1.5-1.092-2.589-1.092c-1.138,0-2.01,0.388-2.615,1.188
			c-0.626,0.773-0.92,1.934-0.92,3.459v11.035c-1.403-1.55-2.853-2.663-4.331-3.413c-0.941-0.458-2.008-0.796-3.217-0.968
			c-0.7-0.096-1.426-0.146-2.225-0.146c-3.703,0-6.728,1.308-9.002,3.921c-2.274,2.614-3.413,6.244-3.413,10.911
			c0,2.204,0.292,4.261,0.847,6.149c0.582,1.886,1.428,3.53,2.543,4.936c1.111,1.403,2.443,2.466,3.969,3.242
			c1.524,0.748,3.167,1.135,4.959,1.135c0.798,0,1.573-0.07,2.321-0.215c0.485-0.075,0.945-0.194,1.405-0.342
			c1.136-0.385,2.201-0.941,3.169-1.643c0.992-0.728,1.961-1.67,2.974-2.808v0.727c0,1.379,0.342,2.419,0.993,3.169
			c0.653,0.725,1.525,1.111,2.542,1.111c0.989,0,1.863-0.361,2.518-1.063c0.651-0.727,0.966-1.79,0.966-3.218V35.208
			C97.681,33.827,97.393,32.763,96.787,32.039z M89.285,62.477c-0.653,1.403-1.525,2.445-2.611,3.122
			c-1.066,0.677-2.276,1.014-3.56,1.014h-0.023c-1.305,0-2.493-0.361-3.581-1.063c-1.113-0.726-1.959-1.791-2.589-3.195
			c-0.628-1.428-0.943-3.146-0.943-5.178c0-1.912,0.292-3.605,0.872-5.033c0.604-1.451,1.426-2.566,2.516-3.34
			c1.065-0.799,2.297-1.161,3.654-1.161h0.095c1.283,0,2.467,0.386,3.534,1.136c1.112,0.751,1.983,1.841,2.636,3.268
			c0.628,1.429,0.968,3.146,0.968,5.13C90.253,59.307,89.913,61.074,89.285,62.477z"/>
		<path fill="#FFFFFF" d="M46.555,46.167v0.921c1.329-1.743,2.758-3.001,4.306-3.824c1.573-0.798,3.364-1.212,5.396-1.212
			c1.961,0,3.728,0.437,5.276,1.285c1.55,0.844,2.687,2.056,3.459,3.629c0.51,0.918,0.823,1.912,0.97,2.977
			c0.145,1.039,0.216,2.393,0.216,4.039V67.85c0,1.5-0.363,2.635-1.042,3.387c-0.676,0.772-1.573,1.159-2.661,1.159
			c-1.111,0-2.008-0.387-2.71-1.185c-0.703-0.774-1.04-1.909-1.04-3.361V55.434c0-2.467-0.34-4.354-1.019-5.66
			c-0.676-1.305-2.056-1.959-4.087-1.959c-1.332,0-2.542,0.412-3.631,1.184c-1.088,0.801-1.911,1.887-2.419,3.292
			c-0.363,1.112-0.533,3.169-0.533,6.244v9.315c0,1.524-0.36,2.635-1.063,3.411c-0.702,0.748-1.597,1.135-2.71,1.135
			c-1.088,0-1.961-0.387-2.663-1.185c-0.702-0.774-1.042-1.909-1.042-3.361V46.289c0-1.427,0.315-2.491,0.945-3.169
			c0.605-0.7,1.451-1.067,2.542-1.067c0.653,0,1.233,0.146,1.766,0.462c0.534,0.313,0.967,0.774,1.283,1.403
			C46.408,44.546,46.555,45.298,46.555,46.167z"/>
		<g>
			<path fill="#FFFFFF" d="M26.541,24.755c5.035-1.815,10.77-1.718,15.076,2.008c0.8,0.75,1.718,1.692,2.081,2.806
				c0.435,1.403-1.523-0.146-1.791-0.338c-1.403-0.92-2.807-1.693-4.379-2.227c-8.468-2.613-16.479,2.106-21.462,9.436
				c-2.08,3.243-3.437,6.654-4.549,10.405c-0.121,0.412-0.217,0.945-0.436,1.305c-0.218,0.415-0.097-1.109-0.097-1.16
				c0.168-1.548,0.483-3.047,0.872-4.547C14.154,34.456,19.236,27.803,26.541,24.755z"/>
			<path fill="#FFFFFF" d="M33.101,44.571c-3.025,1.548-6.729,0.34-8.252-2.685c-1.55-3.026-0.338-6.727,2.686-8.252
				c3.025-1.548,6.729-0.34,8.251,2.686C37.334,39.346,36.125,43.046,33.101,44.571z"/>
		</g>
	</g>
</g>
<g id="Layer_7" display="none">
	<path id="path4126" display="inline" fill="#FFFFFF" d="M54.472,62.003c0,2.921-2.371,5.292-5.292,5.292
		c-2.921,0-5.292-2.371-5.292-5.292c0-2.922,2.371-5.292,5.292-5.292C52.101,56.711,54.472,59.081,54.472,62.003z"/>
	<path id="path4153" display="inline" fill="#FFFFFF" d="M40.802,75.673c0,2.922-2.371,5.292-5.292,5.292
		c-2.921,0-5.292-2.37-5.292-5.292s2.371-5.292,5.292-5.292C38.431,70.381,40.802,72.751,40.802,75.673z"/>
	<path id="path4128" display="inline" fill="#FFFFFF" d="M54.472,75.673c0,2.922-2.371,5.292-5.292,5.292
		c-2.921,0-5.292-2.37-5.292-5.292s2.371-5.292,5.292-5.292C52.101,70.381,54.472,72.751,54.472,75.673z"/>
	<path id="path3153" display="inline" fill="#FFFFFF" d="M54.472,34.662c0,2.921-2.371,5.292-5.292,5.292
		c-2.921,0-5.292-2.371-5.292-5.292c0-2.921,2.371-5.292,5.292-5.292C52.101,29.37,54.472,31.74,54.472,34.662z"/>
	<path id="path3155" display="inline" fill="#FFFFFF" d="M54.472,48.332c0,2.922-2.371,5.292-5.292,5.292
		c-2.921,0-5.292-2.37-5.292-5.292c0-2.921,2.371-5.292,5.292-5.292C52.101,43.04,54.472,45.411,54.472,48.332z"/>
	<path id="path4149" display="inline" fill="#FFFFFF" d="M40.802,48.332c0,2.922-2.371,5.292-5.292,5.292
		c-2.921,0-5.292-2.37-5.292-5.292c0-2.921,2.371-5.292,5.292-5.292C38.431,43.04,40.802,45.411,40.802,48.332z"/>
	<path id="path4151" display="inline" fill="#FFFFFF" d="M40.802,62.003c0,2.921-2.371,5.292-5.292,5.292
		c-2.921,0-5.292-2.371-5.292-5.292c0-2.922,2.371-5.292,5.292-5.292C38.431,56.711,40.802,59.081,40.802,62.003z"/>
	<path id="path4186" display="inline" fill="#FFFFFF" d="M27.131,62.003c0,2.921-2.371,5.292-5.292,5.292
		c-2.921,0-5.292-2.371-5.292-5.292c0-2.922,2.371-5.292,5.292-5.292C24.76,56.711,27.131,59.081,27.131,62.003z"/>
	<path id="path4188" display="inline" fill="#FFFFFF" d="M27.131,75.673c0,2.922-2.371,5.292-5.292,5.292
		c-2.921,0-5.292-2.37-5.292-5.292s2.371-5.292,5.292-5.292C24.76,70.381,27.131,72.751,27.131,75.673z"/>
	<path id="path4207" display="inline" fill="#FFFFFF" d="M13.46,48.332c0,2.922-2.371,5.292-5.292,5.292
		c-2.922,0-5.292-2.37-5.292-5.292c0-2.921,2.371-5.292,5.292-5.292C11.089,43.04,13.46,45.411,13.46,48.332z"/>
	<path id="path4209" display="inline" fill="#FFFFFF" d="M13.46,62.003c0,2.921-2.371,5.292-5.292,5.292
		c-2.922,0-5.292-2.371-5.292-5.292c0-2.922,2.371-5.292,5.292-5.292C11.089,56.711,13.46,59.081,13.46,62.003z"/>
	<path id="path4211" display="inline" fill="#FFFFFF" d="M13.46,75.673c0,2.922-2.371,5.292-5.292,5.292
		c-2.922,0-5.292-2.37-5.292-5.292s2.371-5.292,5.292-5.292C11.089,70.381,13.46,72.751,13.46,75.673z"/>
	<path id="path2175" display="inline" fill="#FFFFFF" d="M54.472,20.991c0,2.921-2.371,5.292-5.292,5.292
		c-2.921,0-5.292-2.372-5.292-5.292c0-2.921,2.371-5.292,5.292-5.292C52.101,15.699,54.472,18.07,54.472,20.991z"/>
	<path id="flowRoot2181" display="inline" fill="#FFFFFF" d="M99.399,54.37l0.032,9.144c0,0.932,0.084,1.577,0.254,1.938
		c0.169,0.359,0.413,0.591,0.73,0.698v0.666h-4.794c-0.212-0.635-0.349-1.301-0.413-2c-0.72,0.762-1.376,1.302-1.969,1.62
		c-0.974,0.549-2.138,0.825-3.493,0.825c-1.418,0-2.593-0.382-3.525-1.144c-1.079-0.889-1.619-2.148-1.619-3.779
		c0-1.587,0.439-2.83,1.317-3.73c0.879-0.899,2.08-1.455,3.604-1.667l3.969-0.603c0.614-0.085,1.032-0.239,1.254-0.461
		c0.222-0.223,0.333-0.514,0.333-0.874c0-0.826-0.35-1.386-1.048-1.682c-0.445-0.19-1.08-0.285-1.905-0.285
		c-0.974,0-1.683,0.264-2.127,0.794c-0.318,0.38-0.508,0.898-0.572,1.555h-4.287c0.211-2.328,1.09-3.957,2.636-4.89
		c1.122-0.676,2.752-1.015,4.889-1.015c1.694,0,3.112,0.285,4.255,0.855C98.574,51.162,99.399,52.508,99.399,54.37L99.399,54.37z
		 M95.082,60.752v-2.159c-0.212,0.169-0.55,0.334-1.017,0.492c-0.466,0.159-1.169,0.313-2.111,0.461s-1.614,0.36-2.017,0.634
		c-0.592,0.402-0.888,1.028-0.888,1.874c0,0.699,0.232,1.229,0.698,1.587c0.381,0.297,0.836,0.445,1.365,0.445
		c1.059,0,1.985-0.307,2.778-0.921C94.685,62.551,95.082,61.746,95.082,60.752L95.082,60.752z"/>
	<path id="flowRoot2199" display="inline" fill="#FFFFFF" d="M118.421,50.477l-8.791,23.798h-5.83l2.637-6.807l-6.388-16.991h5.705
		l3.658,10.913l3.428-10.913H118.421z"/>
	<path id="flowRoot2223" display="inline" fill="#FFFFFF" d="M118.78,59.632h4.777c0,0.973,0.288,1.78,0.863,2.421
		c0.861,0.95,2.254,1.426,4.179,1.426c1.416,0,2.544-0.197,3.384-0.596c1.063-0.508,1.592-1.338,1.592-2.487
		c0-0.863-0.397-1.516-1.193-1.957c-0.531-0.287-1.57-0.62-3.119-0.996l-2.554-0.598c-2.544-0.597-4.279-1.216-5.208-1.858
		c-1.57-1.083-2.355-2.797-2.355-5.141c0-1.836,0.552-3.384,1.658-4.645c1.569-1.791,4.07-2.687,7.496-2.687
		c3.251,0,5.707,0.918,7.365,2.753c1.261,1.394,1.892,3.041,1.892,4.943h-4.777c-0.11-0.952-0.386-1.682-0.828-2.19
		c-0.799-0.929-2.146-1.394-4.049-1.394c-1.127,0-2.056,0.2-2.786,0.598c-0.906,0.508-1.359,1.26-1.359,2.256
		c0,0.818,0.298,1.438,0.896,1.856c0.332,0.244,0.874,0.454,1.625,0.631l5.839,1.426c1.968,0.487,3.417,1.117,4.345,1.893
		c1.261,1.038,1.893,2.542,1.893,4.509c0,2.411-0.797,4.282-2.39,5.608c-1.747,1.46-4.08,2.189-6.999,2.189
		c-3.871,0-6.657-0.95-8.361-2.854C119.389,63.392,118.78,61.689,118.78,59.632L118.78,59.632z"/>
	<path id="flowRoot2231" display="inline" fill="#FFFFFF" d="M150.395,60.996h4.509c-0.128,1.461-0.657,2.772-1.588,3.937
		c-1.397,1.778-3.439,2.669-6.129,2.669c-2.836,0-4.932-0.953-6.285-2.859c-1.038-1.459-1.558-3.313-1.558-5.557
		c0-2.879,0.635-5.123,1.905-6.731c1.376-1.756,3.44-2.634,6.192-2.634c1.779,0,3.302,0.413,4.571,1.238
		c1.758,1.121,2.731,2.866,2.921,5.236h-4.508c-0.191-0.973-0.571-1.692-1.143-2.157c-0.466-0.382-1.069-0.572-1.811-0.572
		c-1.271,0-2.212,0.551-2.825,1.652c-0.487,0.867-0.731,1.947-0.731,3.239c0,2.01,0.281,3.427,0.842,4.254
		c0.561,0.824,1.425,1.237,2.588,1.237c0.973,0,1.757-0.391,2.351-1.174C150.161,62.16,150.395,61.566,150.395,60.996
		L150.395,60.996z"/>
	<path id="flowRoot2239" display="inline" fill="#FFFFFF" d="M170.736,54.552l0.032,9.145c0,0.931,0.085,1.577,0.254,1.937
		c0.17,0.36,0.412,0.593,0.73,0.699v0.666h-4.795c-0.211-0.635-0.349-1.301-0.412-1.999c-0.72,0.761-1.375,1.301-1.968,1.618
		c-0.975,0.551-2.139,0.826-3.493,0.826c-1.419,0-2.594-0.381-3.526-1.144c-1.078-0.89-1.617-2.148-1.617-3.778
		c0-1.588,0.438-2.832,1.316-3.73c0.879-0.9,2.08-1.456,3.604-1.668l3.969-0.603c0.615-0.086,1.033-0.239,1.255-0.461
		c0.223-0.223,0.334-0.513,0.334-0.873c0-0.825-0.35-1.386-1.048-1.682c-0.445-0.191-1.08-0.288-1.904-0.288
		c-0.975,0-1.685,0.267-2.129,0.796c-0.317,0.381-0.508,0.899-0.571,1.557h-4.286c0.212-2.33,1.09-3.96,2.636-4.892
		c1.121-0.677,2.752-1.015,4.889-1.015c1.693,0,3.112,0.285,4.256,0.855C169.911,51.344,170.736,52.689,170.736,54.552
		L170.736,54.552z M166.419,60.933v-2.157c-0.212,0.169-0.551,0.333-1.017,0.492c-0.467,0.158-1.17,0.312-2.111,0.46
		s-1.614,0.359-2.017,0.634c-0.593,0.402-0.888,1.027-0.888,1.874c0,0.699,0.231,1.227,0.698,1.588
		c0.381,0.296,0.836,0.444,1.365,0.444c1.058,0,1.984-0.307,2.778-0.921C166.021,62.732,166.419,61.929,166.419,60.933
		L166.419,60.933z"/>
	<path id="flowRoot2247" display="inline" fill="#FFFFFF" d="M174.477,66.735V44.007h4.357v22.728H174.477z"/>
	<path id="flowRoot2255" display="inline" fill="#FFFFFF" d="M71.964,58.518v8.225H67.2V43.945h10.415
		c2.202,0,3.932,0.651,5.191,1.953c1.26,1.301,1.89,3.084,1.89,5.35c0,1.61-0.445,3.081-1.334,4.413
		c-1.27,1.905-3.249,2.857-5.937,2.857H71.964z M71.932,54.581h4.414c1.524,0,2.562-0.465,3.112-1.396
		c0.296-0.509,0.444-1.228,0.444-2.159c0-1.123-0.328-1.927-0.984-2.414c-0.656-0.487-1.726-0.73-3.207-0.73h-3.778V54.581z"/>
	<path id="flowRoot2263" display="inline" fill="#FFFFFF" d="M193.048,62.284h4.572c-0.55,1.885-1.566,3.293-3.049,4.223
		c-1.248,0.785-2.709,1.177-4.381,1.177c-2.604,0-4.604-0.668-6.002-2.001c-1.608-1.546-2.413-3.959-2.413-7.24
		c0-1.926,0.414-3.599,1.239-5.017c1.354-2.349,3.631-3.524,6.827-3.524c2.137,0,3.884,0.583,5.237,1.747
		c1.821,1.565,2.731,4.085,2.731,7.558l-0.031,0.793h-11.591c0.19,1.503,0.599,2.566,1.224,3.191
		c0.624,0.623,1.55,0.936,2.778,0.936c0.655,0,1.254-0.158,1.794-0.476S192.879,62.878,193.048,62.284L193.048,62.284z
		 M186.348,57.109h6.892c-0.129-1.249-0.552-2.181-1.271-2.794c-0.594-0.509-1.313-0.764-2.16-0.764
		c-1.038,0-1.842,0.308-2.412,0.923C186.825,55.088,186.475,55.966,186.348,57.109L186.348,57.109z"/>
</g>
<g id="Layer_8" display="none">
	<path display="inline" fill="#FFFFFF" d="M53.722,45.544c-0.174,3.803-2.829,9.011-7.965,15.622
		c-5.311,6.904-9.804,10.356-13.479,10.356c-2.276,0-4.204-2.102-5.777-6.308c-1.051-3.854-2.102-7.709-3.153-11.563
		c-1.168-4.204-2.422-6.308-3.762-6.308c-0.292,0-1.315,0.615-3.065,1.84l-1.838-2.368c1.928-1.694,3.829-3.389,5.7-5.085
		c2.571-2.222,4.501-3.391,5.788-3.509c3.04-0.292,4.911,1.786,5.613,6.235c0.759,4.8,1.284,7.787,1.579,8.955
		c0.876,3.983,1.84,5.973,2.894,5.973c0.818,0,2.045-1.292,3.683-3.875c1.635-2.584,2.512-4.55,2.63-5.9
		c0.233-2.229-0.644-3.348-2.63-3.348c-0.936,0-1.899,0.216-2.891,0.641c1.92-6.29,5.587-9.345,11-9.17
		C52.061,37.851,53.953,40.454,53.722,45.544"/>
	<path display="inline" fill="#FFFFFF" d="M77.83,57.865c-1.638,3.096-3.888,5.899-6.753,8.411
		c-3.919,3.389-7.835,5.083-11.751,5.083c-1.815,0-3.204-0.585-4.167-1.754s-1.417-2.686-1.358-4.557
		c0.056-1.927,0.656-4.908,1.796-8.939c1.141-4.032,1.712-6.195,1.712-6.487c0-1.518-0.528-2.278-1.579-2.278
		c-0.351,0-1.345,0.615-2.983,1.84l-2.018-2.368c1.871-1.694,3.742-3.389,5.613-5.085c2.514-2.222,4.385-3.391,5.615-3.509
		c1.928-0.174,3.345,0.393,4.252,1.705c0.904,1.312,1.24,3.014,1.01,5.111c-0.761,3.555-1.582,8.068-2.458,13.542
		c-0.059,2.507,0.848,3.758,2.719,3.758c0.818,0,2.278-0.863,4.385-2.596c1.753-1.44,3.186-2.797,4.298-4.067L77.83,57.865z
		 M70.199,26.676c-0.059,1.456-0.789,2.853-2.194,4.19c-1.579,1.512-3.45,2.268-5.613,2.268c-3.332,0-4.941-1.453-4.824-4.362
		c0.056-1.512,0.948-2.968,2.673-4.365c1.725-1.394,3.639-2.094,5.746-2.094c1.228,0,2.25,0.482,3.07,1.44
		C69.876,24.715,70.256,25.689,70.199,26.676"/>
	<path display="inline" fill="#FFFFFF" d="M132.6,57.865c-1.638,3.096-3.889,5.899-6.754,8.411
		c-3.919,3.389-7.835,5.083-11.752,5.083c-3.803,0-5.643-2.103-5.525-6.311c0.057-1.871,0.424-4.119,1.094-6.748
		c0.672-2.63,1.039-4.676,1.098-6.137c0.059-2.219-0.615-3.331-2.025-3.331c-1.523,0-3.342,1.814-5.453,5.438
		c-2.23,3.801-3.435,7.483-3.609,11.049c-0.117,2.517,0.129,4.447,0.738,5.79c-4.08,0.118-6.938-0.556-8.568-2.017
		c-1.461-1.287-2.13-3.419-2.012-6.403c0.057-1.87,0.344-3.741,0.861-5.612c0.515-1.871,0.802-3.537,0.861-5.001
		c0.118-2.163-0.674-3.244-2.371-3.244c-1.466,0-3.047,1.668-4.744,5s-2.635,6.813-2.809,10.437
		c-0.118,3.275,0.092,5.555,0.628,6.841c-4.014,0.118-6.864-0.729-8.55-2.537c-1.399-1.515-2.038-3.816-1.92-6.907
		c0.057-1.516,0.323-3.63,0.805-6.342c0.482-2.711,0.751-4.823,0.808-6.34c0.115-1.049-0.149-1.574-0.79-1.574
		c-0.351,0-1.346,0.592-2.983,1.773l-2.104-2.368c0.292-0.231,2.132-1.928,5.526-5.085c2.455-2.278,4.121-3.447,4.998-3.506
		c1.52-0.118,2.748,0.51,3.683,1.884c0.936,1.374,1.405,2.968,1.405,4.78c0,0.584-0.059,1.141-0.174,1.666
		c0.876-1.343,1.899-2.514,3.07-3.509c2.688-2.337,5.7-3.655,9.032-3.947c2.865-0.233,4.911,0.438,6.142,2.017
		c0.991,1.286,1.457,3.129,1.401,5.525c0.41-0.348,0.849-0.73,1.317-1.14c1.344-1.579,2.658-2.834,3.944-3.771
		c2.163-1.579,4.416-2.455,6.753-2.632c2.807-0.233,4.824,0.436,6.052,2.009c1.051,1.281,1.52,3.117,1.404,5.502
		c-0.059,1.633-0.453,4.007-1.184,7.123c-0.733,3.116-1.098,4.905-1.098,5.372c-0.059,1.225,0.06,2.068,0.352,2.534
		c0.292,0.467,0.992,0.697,2.104,0.697c0.817,0,2.278-0.863,4.385-2.596c1.754-1.44,3.186-2.796,4.299-4.067L132.6,57.865z"/>
	<path display="inline" fill="#FFFFFF" d="M165.487,57.775c-1.696,2.804-5.028,5.605-9.998,8.406
		c-6.197,3.563-12.484,5.342-18.855,5.342c-4.737,0-8.13-1.579-10.176-4.734c-1.461-2.163-2.163-4.734-2.104-7.717
		c0.056-4.734,2.163-9.234,6.314-13.505c4.56-4.675,9.939-7.015,16.137-7.015c5.731,0,8.771,2.334,9.122,7
		c0.233,2.973-1.405,6.036-4.911,9.186c-3.744,3.441-8.452,5.628-14.122,6.561c1.051,1.458,2.63,2.187,4.736,2.187
		c4.209,0,8.799-1.068,13.771-3.212c3.564-1.504,6.371-3.067,8.419-4.688L165.487,57.775z M145.578,48.617
		c0.057-1.568-0.584-2.355-1.927-2.355c-1.753,0-3.532,1.208-5.342,3.621c-1.81,2.415-2.745,4.727-2.802,6.936
		c-0.033,0-0.033,0.38,0,1.137c2.86-1.047,5.342-2.646,7.443-4.799C144.643,51.296,145.52,49.781,145.578,48.617"/>
	<path display="inline" fill="#FFFFFF" d="M189.296,51.895c-0.235,5.372-2.223,10.014-5.964,13.925
		c-3.742,3.911-8.392,5.867-13.946,5.867c-4.618,0-8.127-1.49-10.523-4.468c-1.753-2.217-2.719-4.99-2.893-8.316
		c-0.295-5.021,1.517-9.636,5.438-13.838c4.208-4.67,9.498-7.004,15.872-7.004c4.091,0,7.189,1.374,9.296,4.116
		C188.565,44.688,189.47,47.928,189.296,51.895 M179.385,51.564c0.059-1.58-0.161-3.031-0.659-4.349
		c-0.497-1.317-1.214-1.979-2.147-1.979c-2.983,0-5.439,1.612-7.366,4.833c-1.641,2.638-2.517,5.449-2.632,8.435
		c-0.059,1.467,0.205,2.756,0.789,3.868c0.641,1.289,1.548,1.933,2.72,1.933c2.63,0,4.883-1.551,6.754-4.657
		C178.421,57.07,179.267,54.377,179.385,51.564"/>
</g>
<g id="Layer_8_copy" display="none">
	<path display="inline" fill="#FFFFFF" d="M14.222,26.729h7.207l4.873,17.99l4.682-17.99h6.92l-8.244,27.244v18.549h-6.852V53.973
		c-0.622-3.284-1.992-8.096-4.19-14.482C17.171,35.243,15.667,30.976,14.222,26.729z"/>
	<path display="inline" fill="#FFFFFF" d="M61.325,38.399h6.156v25.128c0,1.448,0.007,2.199,0.081,2.402
		c0.137,0.957,0.617,1.446,1.447,1.446c1.236,0,2.534-0.957,3.903-2.894V38.399h6.184v34.123h-6.184v-3.727
		c-2.46,2.822-4.801,4.191-7.057,4.191c-1.989,0-3.369-0.797-3.985-2.525c-0.341-1.035-0.546-2.669-0.546-5.078V38.399z"/>
	<path display="inline" fill="#FFFFFF" d="M47.103,37.99c3.098,0,5.497,1.16,7.207,3.494c1.296,1.724,1.925,4.392,1.925,8.039
		v11.957c0,3.626-0.629,6.306-1.925,8.013c-1.71,2.326-4.108,3.494-7.207,3.494c-3.08,0-5.484-1.168-7.193-3.494
		c-1.315-1.707-1.938-4.387-1.938-8.013V49.523c0-3.647,0.623-6.315,1.938-8.039C41.619,39.15,44.023,37.99,47.103,37.99z
		 M47.103,43.545c-1.994,0-2.948,1.579-2.948,4.736V62.64c0,3.157,0.955,4.736,2.948,4.736c1.993,0,2.948-1.579,2.948-4.736V48.281
		C50.051,45.124,49.097,43.545,47.103,43.545z"/>
	<path display="inline" fill="#FFFFFF" d="M128.384,14.718c1.484-0.005,2.965,0,4.449,0h2.348h2.334
		c11.878,0,23.789,0.09,35.569,1.406c5.301,0.592,9.709,4.566,10.947,9.95c1.762,7.668,1.747,16.032,1.747,23.927v0.341
		c-0.001,7.797-0.037,16.025-1.774,23.586c-1.238,5.385-5.633,9.357-10.934,9.95c-11.793,1.318-23.733,1.405-35.624,1.405
		c-0.766,0-1.527,0.002-2.293,0c-0.766,0.002-1.527,0-2.293,0c-11.892,0-23.817-0.087-35.61-1.405
		c-5.301-0.593-9.708-4.565-10.947-9.95c-1.721-7.486-1.76-15.625-1.761-23.354V50c0-7.895,0.026-16.258,1.788-23.927
		c1.239-5.384,5.633-9.358,10.934-9.95C107.571,14.972,117.985,14.753,128.384,14.718z M92.09,27.316v6.374h7.193v38.941h6.812
		V33.69h7.329v-6.374H92.09z M137.2,27.316v45.315h6.115v-3.275c2.044,2.529,4.158,3.74,6.333,3.74c2.436,0,4.066-1.285,4.887-3.795
		c0.405-1.432,0.614-3.687,0.614-6.811V49.045c0-3.195-0.209-5.425-0.614-6.784c-0.82-2.529-2.451-3.808-4.887-3.808
		c-2.25,0-4.357,1.227-6.333,3.658V27.316H137.2z M169.126,38.454c-3.123,0-5.56,1.142-7.33,3.453
		c-1.299,1.708-1.883,4.349-1.883,7.958v11.834c0,3.588,0.665,6.239,1.965,7.93c1.77,2.308,4.198,3.468,7.398,3.468
		c3.195,0,5.706-1.207,7.397-3.658c0.745-1.082,1.229-2.313,1.434-3.672c0.058-0.61,0.136-1.977,0.136-3.945v-0.887h-6.251
		c0,2.455-0.081,3.803-0.137,4.136c-0.349,1.638-1.221,2.457-2.729,2.457c-2.102,0-3.126-1.558-3.126-4.682v-5.992h12.243v-6.988
		c0-3.608-0.615-6.25-1.896-7.958C174.633,39.596,172.195,38.454,169.126,38.454z M114.312,38.863V65.56
		c0,2.384,0.212,4,0.546,5.023c0.611,1.709,1.96,2.512,3.931,2.512c2.249,0,4.569-1.36,7.002-4.15v3.686h6.115V38.863h-6.115v25.811
		c-1.358,1.916-2.648,2.853-3.876,2.853c-0.818,0-1.285-0.485-1.434-1.433c-0.057-0.203-0.055-0.941-0.055-2.375V38.863H114.312z
		 M146.373,43.954c1.765,0,2.661,1.563,2.661,4.613v14.399c0,3.051-0.896,4.56-2.661,4.56c-1.006,0-2.034-0.479-3.058-1.501V45.442
		C144.339,44.433,145.367,43.954,146.373,43.954z M169.071,43.954c2.025,0,3.058,1.559,3.058,4.682v3.126H166v-3.126
		C166,45.513,167.024,43.954,169.071,43.954z"/>
</g>
</svg>
