<?xml version="1.0" encoding="utf-8"?>
<!-- Generator: Adobe Illustrator 16.0.0, SVG Export Plug-In . SVG Version: 6.00 Build 0)  -->
<!DOCTYPE svg PUBLIC "-//W3C//DTD SVG 1.1//EN" "http://www.w3.org/Graphics/SVG/1.1/DTD/svg11.dtd">
<svg version="1.1" xmlns="http://www.w3.org/2000/svg" xmlns:xlink="http://www.w3.org/1999/xlink" x="0px" y="0px" width="200px"
	 height="100px" viewBox="0 0 200 100" enable-background="new 0 0 200 100" xml:space="preserve">
<g id="Layer_2" display="none">
	<rect display="inline" width="200" height="100"/>
</g>
<g id="Layer_1" display="none">
	<g display="inline">
		<path fill="#FFFFFF" d="M50.784,46.883H37.329c-0.347,0-0.628,0.282-0.628,0.629v6.578c0,0.347,0.281,0.63,0.628,0.63h5.249v8.172
			c0,0-1.179,0.402-4.437,0.402c-3.844,0-9.214-1.405-9.214-13.213c0-11.811,5.592-13.364,10.841-13.364
			c4.544,0,6.502,0.8,7.748,1.186c0.392,0.12,0.753-0.27,0.753-0.617l1.501-6.355c0-0.163-0.055-0.358-0.24-0.491
			c-0.506-0.361-3.592-2.088-11.389-2.088c-8.982,0-18.195,3.821-18.195,22.191s10.548,21.107,19.438,21.107
			c7.36,0,11.825-3.146,11.825-3.146c0.184-0.102,0.204-0.358,0.204-0.477V47.512C51.412,47.165,51.13,46.883,50.784,46.883z"/>
		<path fill="#FFFFFF" d="M120.121,30.552c0-0.35-0.277-0.632-0.625-0.632h-7.575c-0.346,0-0.627,0.282-0.627,0.632
			c0,0.001,0.002,14.64,0.002,14.64H99.487v-14.64c0-0.35-0.279-0.632-0.625-0.632h-7.575c-0.345,0-0.626,0.282-0.626,0.632v39.641
			c0,0.35,0.281,0.635,0.626,0.635h7.575c0.346,0,0.625-0.285,0.625-0.635V53.236h11.809c0,0-0.021,16.955-0.021,16.956
			c0,0.35,0.281,0.635,0.628,0.635h7.594c0.347,0,0.624-0.285,0.625-0.635V30.552z"/>
		<g>
			<g>
				<path fill="#FFFFFF" d="M65.079,35.753c0-2.728-2.187-4.932-4.886-4.932c-2.695,0-4.884,2.205-4.884,4.932
					c0,2.725,2.188,4.936,4.884,4.936C62.892,40.689,65.079,38.479,65.079,35.753z"/>
				<path fill="#FFFFFF" d="M64.537,61.83c0-1.016,0-18.298,0-18.298c0-0.348-0.28-0.631-0.627-0.631h-7.551
					c-0.347,0-0.657,0.357-0.657,0.705c0,0,0,22.019,0,26.216c0,0.771,0.48,1,1.102,1c0,0,3.223,0,6.804,0
					c0.747,0,0.93-0.367,0.93-1.012C64.537,68.404,64.537,62.899,64.537,61.83z"/>
			</g>
		</g>
		<path fill="#FFFFFF" d="M148.911,42.96h-7.518c-0.345,0-0.625,0.285-0.625,0.634v19.437c0,0-1.91,1.397-4.621,1.397
			c-2.71,0-3.43-1.229-3.43-3.884c0-2.658,0-16.951,0-16.951c0-0.35-0.279-0.634-0.625-0.634h-7.63
			c-0.344,0-0.626,0.285-0.626,0.634c0,0,0,10.351,0,18.234c0,7.884,4.394,9.813,10.438,9.813c4.959,0,8.957-2.74,8.957-2.74
			s0.19,1.444,0.276,1.615s0.311,0.344,0.554,0.344l4.854-0.022c0.344,0,0.626-0.284,0.626-0.633l-0.002-26.61
			C149.539,43.245,149.258,42.96,148.911,42.96z"/>
		<path fill="#FFFFFF" d="M169.458,42.07c-4.27,0-7.174,1.905-7.174,1.905V30.552c0-0.35-0.28-0.632-0.625-0.632h-7.598
			c-0.345,0-0.626,0.282-0.626,0.632v39.641c0,0.35,0.281,0.635,0.627,0.635c0.001,0,5.27,0,5.271,0c0.237,0,0.417-0.123,0.55-0.337
			c0.131-0.213,0.319-1.828,0.319-1.828s3.106,2.944,8.987,2.944c6.904,0,10.863-3.502,10.863-15.721
			C180.054,43.667,173.73,42.07,169.458,42.07z M166.493,64.404c-2.608-0.079-4.377-1.263-4.377-1.263V50.589
			c0,0,1.745-1.07,3.886-1.261c2.707-0.243,5.315,0.575,5.315,7.033C171.317,63.171,170.141,64.515,166.493,64.404z"/>
		<path fill="#FFFFFF" d="M86.31,42.897h-5.683c0,0-0.008-7.506-0.008-7.507c0-0.285-0.146-0.426-0.475-0.426H72.4
			c-0.301,0-0.463,0.132-0.463,0.422v7.758c0,0-3.881,0.937-4.143,1.012c-0.261,0.076-0.454,0.317-0.454,0.604v4.875
			c0,0.351,0.28,0.633,0.626,0.633h3.97c0,0,0,5.099,0,11.729c0,8.711,6.11,9.566,10.234,9.566c1.884,0,4.137-0.605,4.51-0.742
			c0.225-0.083,0.355-0.316,0.355-0.568l0.006-5.363c0-0.35-0.295-0.633-0.628-0.633c-0.332,0-1.179,0.135-2.051,0.135
			c-2.791,0-3.737-1.298-3.737-2.978c0-1.679,0-11.146,0-11.146h5.683c0.346,0,0.627-0.283,0.627-0.633v-6.106
			C86.937,43.179,86.656,42.897,86.31,42.897z"/>
	</g>
</g>
<g id="Layer_3" display="none">
	<g id="g4109" transform="matrix(1.25,0,0,-1.25,-45.762375,730.49)" display="inline">
		<g id="g4699">
			<g>
				<defs>
					<polygon id="SVGID_1_" points="42.543,520.392 192.288,520.392 192.288,568.925 42.543,568.925 42.543,520.392 					"/>
				</defs>
				<clipPath id="SVGID_2_">
					<use xlink:href="#SVGID_1_"  overflow="visible"/>
				</clipPath>
				<g id="g4701" clip-path="url(#SVGID_2_)">
					<g id="g4707" transform="translate(84.9209,560.2371)">
						<path id="path4709" fill="#FFFFFF" d="M6.156-15.578c0-13.402-10.864-24.266-24.266-24.266
							c-13.402,0-24.267,10.864-24.267,24.266c0,13.403,10.865,24.266,24.267,24.266C-4.709,8.688,6.156-2.175,6.156-15.578"/>
					</g>
					<g id="g4711" transform="translate(51.6875,560.794)">
						<path id="path4713" d="M6.003-15.575c-5.479-0.528-6.63-2.023-6.63-3.548c0-1.214,0.809-1.992,2.21-1.992
							c1.62,0,3.175,0.809,4.42,2.087V-15.575z M6.532-23.105l-0.311,1.989c-1.182-1.213-2.8-2.303-5.23-2.303
							c-2.677,0-4.357,1.62-4.357,4.141c0,3.703,3.173,5.166,9.368,5.819v0.623c0,1.867-1.121,2.52-2.832,2.52
							c-1.806,0-3.519-0.561-5.137-1.276l-0.373,2.396c1.773,0.715,3.455,1.245,5.759,1.245c3.609,0,5.353-1.462,5.353-4.76v-10.394
							H6.532z"/>
					</g>
					<g id="g4715" transform="translate(60.8656,562.0331)">
						<path id="path4717" d="M6.045-15.569v-8.775H3.274v14.843h2.211l0.467-3.019c1.059,1.682,2.771,3.206,5.199,3.331l0.435-2.645
							C9.128-11.96,7.041-13.61,6.045-15.569"/>
					</g>
					<g id="g4719" transform="translate(73.3431,552.9864)">
						<path id="path4721" d="M6.103-15.612c-1.961,0-4.14,0.686-5.416,1.402l0.405,2.614c1.4-0.964,3.207-1.712,5.23-1.712
							c1.899,0,3.02,0.716,3.02,1.961c0,1.369-0.841,1.869-3.518,2.52c-3.487,0.872-4.887,1.93-4.887,4.577
							c0,2.364,1.993,4.107,5.23,4.107c1.836,0,3.486-0.375,4.886-0.996l-0.435-2.613C9.309-3.007,7.659-2.478,6.103-2.478
							c-1.682,0-2.552-0.652-2.552-1.712c0-0.995,0.746-1.555,3.08-2.147c3.673-0.933,5.325-1.992,5.325-4.823
							C11.956-13.868,9.93-15.612,6.103-15.612"/>
					</g>
					<g id="g4723" transform="translate(117.2196,552.9998)">
						<path id="path4725" fill="#FFFFFF" d="M6.304-15.611c-3.586,0-6.364,2.689-6.364,7.35c0,4.749,2.868,7.379,6.453,7.379
							c1.913,0,3.436-0.598,4.602-1.434l-0.33-1.972C9.292-3.153,7.978-2.585,6.334-2.585c-2.689,0-4.391-2.181-4.391-5.646
							c0-3.495,1.732-5.645,4.6-5.645c1.494,0,2.837,0.417,4.302,1.672l0.268-1.792C9.74-15.072,8.215-15.611,6.304-15.611"/>
					</g>
					<g id="g4727" transform="translate(107.455,556.4199)">
						<path id="path4729" fill="#FFFFFF" d="M6.26-15.595c-1.463-1.255-2.809-1.673-4.302-1.673c-2.6,0-4.261,1.772-4.55,4.706
							h8.374l0.298,1.852h-8.678c0.277,2.93,1.902,4.735,4.346,4.735c1.643,0,2.956-0.567,4.332-1.704L6.41-5.707
							c-1.165,0.837-2.689,1.434-4.6,1.434c-3.586,0-6.452-2.629-6.452-7.379c0-4.661,2.778-7.348,6.362-7.348
							c1.912,0,3.436,0.537,4.811,1.612L6.26-15.595z"/>
					</g>
					<g id="g4731" transform="translate(134.7344,553.2984)">
						<path id="path4733" fill="#FFFFFF" d="M6.385-15.609v9.739c0,1.822-0.838,2.927-2.63,2.927c-1.493,0-3.016-0.925-4.571-2.449
							v-10.217h-1.97v21.09l1.97,0.36v-9.323c1.465,1.286,3.048,2.302,4.96,2.302c2.806,0,4.213-1.613,4.213-4.302v-10.127H6.385z"
							/>
					</g>
					<g id="g4735" transform="translate(149.5426,553.2984)">
						<path id="path4737" fill="#FFFFFF" d="M6.453-15.609v9.739c0,1.822-0.838,2.927-2.63,2.927c-1.494,0-3.017-0.925-4.57-2.449
							v-10.217h-1.972v14.13h1.525l0.327-2.091c1.553,1.374,3.167,2.39,5.08,2.39c2.808,0,4.211-1.613,4.211-4.332v-10.097H6.453z"
							/>
					</g>
					<path id="path4739" fill="#FFFFFF" d="M161.699,551.818h1.942v-14.129h-1.942V551.818z M162.685,555.195
						c-0.775,0-1.433,0.658-1.433,1.433c0,0.777,0.658,1.435,1.433,1.435c0.777,0,1.405-0.658,1.405-1.435
						C164.09,555.853,163.461,555.195,162.685,555.195"/>
					<g id="g4741" transform="translate(167.203,552.9998)">
						<path id="path4743" fill="#FFFFFF" d="M6.535-15.611c-3.586,0-6.364,2.689-6.364,7.35c0,4.749,2.869,7.379,6.455,7.379
							c1.911,0,3.433-0.598,4.6-1.434l-0.33-1.972C9.523-3.153,8.207-2.585,6.565-2.585c-2.689,0-4.392-2.181-4.392-5.646
							c0-3.495,1.734-5.645,4.6-5.645c1.494,0,2.841,0.417,4.305,1.672l0.267-1.792C9.969-15.072,8.446-15.611,6.535-15.611"/>
					</g>
					<g id="g4745" transform="translate(183.7366,560.7621)">
						<path id="path4747" fill="#FFFFFF" d="M6.609-15.575c-5.558-0.569-7.111-1.912-7.111-3.825c0-1.522,1.045-2.3,2.539-2.3
							c1.525,0,3.198,0.836,4.572,2.122V-15.575z M7.058-23.073l-0.33,1.881c-1.314-1.225-2.958-2.181-4.989-2.181
							c-2.448,0-4.213,1.345-4.213,3.853c0,3.317,2.691,4.87,9.083,5.498v0.926c0,1.912-1.134,2.719-2.928,2.719
							c-1.673,0-3.314-0.509-4.869-1.255L-1.456-9.87C0.186-9.153,1.798-8.645,3.8-8.645c3.139,0,4.752-1.464,4.752-4.361v-10.067
							H7.058z"/>
					</g>
					<g id="g4749" transform="translate(92.8881,553.0259)">
						<path id="path4751" fill="#FFFFFF" d="M6.192-15.61c-2.221,0-3.692,0.87-3.692,3.481v9.275H0.31v1.68h2.191v4.923l1.951,0.33
							v-5.254h3.271l0.27-1.68H4.451v-8.944c0-1.442,0.57-2.073,2.101-2.073c0.45,0,0.99,0.092,1.321,0.152l0.3-1.652
							C7.754-15.49,7.032-15.61,6.192-15.61"/>
					</g>
				</g>
			</g>
		</g>
	</g>
</g>
<g id="Layer_4" display="none">
	<g display="inline">
		<defs>
			<rect id="SVGID_3_" x="-32.292" y="-17.5" width="264.25" height="135.686"/>
		</defs>
		<clipPath id="SVGID_4_">
			<use xlink:href="#SVGID_3_"  overflow="visible"/>
		</clipPath>
		<path clip-path="url(#SVGID_4_)" fill="#FFFFFF" d="M69.986,31.198c1.699,0,3.113,1.416,3.113,3.114
			c0,1.698-1.414,3.112-3.113,3.112c-1.698,0-3.112-1.414-3.112-3.112C66.874,32.614,68.288,31.198,69.986,31.198 M69.986,66.746
			c-1.585,0-2.66-1.189-2.66-2.66V43.933c0-1.47,1.133-2.659,2.66-2.659c1.529,0,2.66,1.189,2.66,2.659v20.153
			C72.646,65.557,71.571,66.746,69.986,66.746"/>
		<path clip-path="url(#SVGID_4_)" fill="#FFFFFF" d="M89.175,66.974c-3.566,0-6.736-1.134-9-2.888
			c-0.792-0.624-1.132-1.473-1.132-2.209c0-1.131,0.906-1.867,2.038-1.867c0.905,0,1.472,0.339,2.095,0.792
			c1.528,1.134,3.679,2.207,6.396,2.207c3.057,0,4.698-1.132,4.698-2.885c0-1.924-1.585-2.66-5.548-3.738
			c-6.963-1.865-9.51-4.245-9.51-8.32c0-4.246,3.906-7.02,10.02-7.02c2.32,0,4.924,0.567,7.018,1.585
			c1.528,0.736,2.604,1.641,2.604,2.774c0,1.019-0.565,1.981-2.037,1.981c-0.735,0-1.472-0.339-2.321-0.793
			c-1.585-0.848-3.34-1.298-5.377-1.298c-2.83,0-4.755,0.734-4.755,2.714c0,1.926,1.697,2.548,5.774,3.737
			c6.112,1.753,9.283,3.394,9.283,7.98C99.421,63.916,95.912,66.974,89.175,66.974"/>
		<path clip-path="url(#SVGID_4_)" fill="#FFFFFF" d="M114.799,66.974c-3.565,0-6.736-1.134-9.001-2.888
			c-0.792-0.624-1.132-1.473-1.132-2.209c0-1.131,0.906-1.867,2.039-1.867c0.905,0,1.471,0.339,2.094,0.792
			c1.527,1.134,3.678,2.207,6.396,2.207c3.057,0,4.697-1.132,4.697-2.885c0-1.924-1.584-2.66-5.546-3.738
			c-6.961-1.865-9.508-4.245-9.508-8.32c0-4.246,3.904-7.02,10.018-7.02c2.321,0,4.924,0.567,7.019,1.585
			c1.529,0.736,2.604,1.641,2.604,2.774c0,1.019-0.567,1.981-2.039,1.981c-0.734,0-1.471-0.339-2.319-0.793
			c-1.585-0.848-3.341-1.298-5.378-1.298c-2.83,0-4.754,0.734-4.754,2.714c0,1.926,1.696,2.548,5.773,3.737
			c6.112,1.753,9.282,3.394,9.282,7.98C125.044,63.916,121.534,66.974,114.799,66.974"/>
		<path clip-path="url(#SVGID_4_)" fill="#FFFFFF" d="M130.183,55.14V43.933c0-1.47,1.19-2.66,2.66-2.66
			c1.472,0,2.661,1.19,2.661,2.66v11.832c0,3.567,2.771,6.339,6.51,6.339c3.735,0,6.565-2.771,6.565-6.339V43.933
			c0-1.47,1.189-2.66,2.661-2.66c1.47,0,2.659,1.19,2.659,2.66V55.14c0,6.625-5.038,11.834-11.886,11.834
			C135.164,66.974,130.183,61.765,130.183,55.14"/>
		<path clip-path="url(#SVGID_4_)" fill="#FFFFFF" d="M159.791,55.14V43.933c0-1.47,1.188-2.66,2.662-2.66
			c1.47,0,2.658,1.19,2.658,2.66v11.832c0,3.567,2.775,6.339,6.511,6.339s6.565-2.771,6.565-6.339V43.933
			c0-1.47,1.188-2.66,2.66-2.66c1.474,0,2.66,1.19,2.66,2.66V55.14c0,6.625-5.035,11.834-11.886,11.834
			S159.791,61.765,159.791,55.14"/>
		<path clip-path="url(#SVGID_4_)" fill="#FFFFFF" d="M35.826,40.537c-5.442-0.051-9.896,4.318-9.947,9.76
			c-0.051,5.443,4.318,9.896,9.761,9.946c5.442,0.052,9.895-4.32,9.947-9.76C45.638,45.041,41.268,40.588,35.826,40.537
			 M35.686,55.379c-2.755-0.026-4.969-2.279-4.942-5.036c0.026-2.755,2.281-4.969,5.036-4.942s4.969,2.281,4.942,5.036
			C40.696,53.192,38.441,55.406,35.686,55.379"/>
		<path clip-path="url(#SVGID_4_)" fill="#FFFFFF" d="M35.593,31.09c-0.031,0-0.062,0.001-0.093,0.001v-0.002H23.039H18.94h-1.108
			c-0.886,0-1.61,0.726-1.61,1.611v0.987v3.172V50.46c0,10.7,8.671,19.371,19.371,19.371c10.699,0,19.371-8.671,19.371-19.371
			C54.963,39.763,46.291,31.09,35.593,31.09 M22.284,50.193c0.07-7.428,6.149-13.392,13.576-13.322
			c7.428,0.07,13.393,6.149,13.322,13.575c-0.069,7.427-6.148,13.392-13.575,13.323C28.18,63.696,22.214,57.62,22.284,50.193"/>
	</g>
</g>
<g id="Layer_5">
	<g>
		<g>
			<g>
				<polygon fill="#FFFFFF" points="2.163,32.481 9.836,32.481 9.836,60.435 24.047,60.435 24.047,67.518 2.163,67.518 				"/>
				<g>
					<path fill="#FFFFFF" d="M27.437,43.764h7.377v23.744h-7.377V43.764z M31.126,31.962c2.362,0,4.279,1.917,4.279,4.28
						c0,2.362-1.917,4.273-4.279,4.273c-2.36,0-4.277-1.912-4.277-4.273C26.849,33.879,28.766,31.962,31.126,31.962"/>
				</g>
				<polygon fill="#FFFFFF" points="65.651,32.481 73.022,32.481 73.022,53.42 81.378,43.753 90.418,43.753 80.745,54.746 
					90.215,67.518 80.947,67.518 73.118,55.781 73.022,55.781 73.022,67.518 65.651,67.518 				"/>
				<path fill="#FFFFFF" d="M38.894,43.77h7.081v3.243h0.099c0.983-1.867,3.393-3.834,6.982-3.834c7.475,0,8.852,4.918,8.852,11.311
					v13.019h-7.376V55.964c0-2.753-0.05-6.292-3.837-6.292c-3.835,0-4.424,2.999-4.424,6.096v11.74h-7.376V43.77z"/>
				<path fill="#FFFFFF" d="M105.945,52.877c0.047-2.46-1.87-4.524-4.529-4.524c-3.243,0-5.012,2.213-5.208,4.524H105.945z
					 M112.191,63.396c-2.365,3.002-6.246,4.724-10.083,4.724c-7.376,0-13.277-4.918-13.277-12.542
					c0-7.619,5.901-12.538,13.277-12.538c6.888,0,11.211,4.919,11.211,12.538v2.311H96.208c0.586,2.806,2.706,4.624,5.555,4.624
					c2.412,0,4.031-1.228,5.261-2.901L112.191,63.396z"/>
				<path fill="#FFFFFF" d="M128.687,49.506c-3.686,0-5.902,2.46-5.902,6.047c0,3.593,2.217,6.051,5.902,6.051
					c3.691,0,5.901-2.458,5.901-6.051C134.588,51.967,132.378,49.506,128.687,49.506 M141.379,67.505h-6.791v-3.149h-0.096
					c-1.136,1.724-3.985,3.738-7.328,3.738c-7.084,0-11.756-5.112-11.756-12.34c0-6.642,4.133-12.738,10.919-12.738
					c3.052,0,5.9,0.833,7.574,3.145h0.096v-13.68h7.382V67.505z"/>
			</g>
			<path fill="#FFFFFF" d="M194.827,25.123h-42.403c-2.023,0-3.669,1.606-3.669,3.587v42.577c0,1.981,1.646,3.59,3.669,3.59h42.403
				c2.03,0,3.681-1.608,3.681-3.59V28.71C198.508,26.729,196.857,25.123,194.827,25.123z M163.514,67.518h-7.386V43.775h7.386
				V67.518z M159.822,40.531c-2.37,0-4.281-1.917-4.281-4.28c0-2.362,1.911-4.279,4.281-4.279c2.36,0,4.276,1.917,4.276,4.279
				C164.099,38.614,162.183,40.531,159.822,40.531z M191.151,67.518h-7.377V55.973c0-2.753-0.049-6.296-3.836-6.296
				c-3.839,0-4.425,3.001-4.425,6.1v11.742h-7.37V43.775h7.072v3.246h0.102c0.983-1.867,3.393-3.835,6.983-3.835
				c7.47,0,8.851,4.916,8.851,11.311V67.518z"/>
		</g>
	</g>
</g>
</svg>
