<?xml version="1.0" encoding="utf-8"?>
<!-- Generator: Adobe Illustrator 16.0.0, SVG Export Plug-In . SVG Version: 6.00 Build 0)  -->
<!DOCTYPE svg PUBLIC "-//W3C//DTD SVG 1.1//EN" "http://www.w3.org/Graphics/SVG/1.1/DTD/svg11.dtd">
<svg version="1.1" id="Layer_1" xmlns="http://www.w3.org/2000/svg" xmlns:xlink="http://www.w3.org/1999/xlink" x="0px" y="0px"
	 width="105px" height="105px" viewBox="0 0 105 105" enable-background="new 0 0 105 105" xml:space="preserve">
<g>
	<path fill="none" stroke="#FFFFFF" stroke-width="5" d="M17.742,87.914c19.413,19.415,50.861,19.399,70.249-0.004
		c19.376-19.386,19.382-50.856,0.007-70.223C68.606-1.708,37.146-1.703,17.756,17.7C-1.638,37.091-1.638,68.531,17.742,87.914z"/>
	<path fill="none" stroke="#FFFFFF" stroke-width="5" d="M20.934,84.733c17.639,17.652,46.237,17.648,63.868-0.002
		c17.637-17.625,17.639-46.241,0.016-63.864C67.173,3.23,38.573,3.239,20.939,20.881C3.302,38.513,3.302,67.107,20.934,84.733z"/>
	<path fill="#FFFFFF" d="M61.934,35.2c0,5.01-4.056,9.069-9.059,9.069c-5.016,0-9.067-4.059-9.067-9.069
		c0-4.998,4.052-9.054,9.067-9.054C57.877,26.145,61.934,30.202,61.934,35.2z"/>
	<path fill="#FFFFFF" d="M59.465,58.127c0,3.642-2.953,6.591-6.59,6.591c-3.651,0-6.601-2.949-6.601-6.591
		c0-3.646,2.945-6.599,6.601-6.599C56.509,51.528,59.465,54.478,59.465,58.127z"/>
	<path fill="#FFFFFF" d="M57.376,76.481c0,2.488-2.017,4.503-4.502,4.503c-2.497,0-4.509-2.015-4.509-4.503
		c0-2.487,2.012-4.511,4.509-4.511C55.357,71.973,57.376,73.994,57.376,76.481z"/>
	<path fill="#FFFFFF" d="M39.224,45.601c0,2.489-2.015,4.505-4.508,4.505c-2.484,0-4.506-2.016-4.506-4.505
		c0-2.483,2.019-4.506,4.506-4.506C37.209,41.095,39.224,43.117,39.224,45.601z"/>
	<path fill="#FFFFFF" d="M75.521,45.601c0,2.489-2.017,4.505-4.507,4.505c-2.483,0-4.499-2.016-4.499-4.505
		c0-2.483,2.016-4.506,4.499-4.506C73.505,41.095,75.521,43.117,75.521,45.601z"/>
</g>
</svg>
