<?xml version="1.0" encoding="utf-8"?>
<!-- Generator: Adobe Illustrator 16.0.0, SVG Export Plug-In . SVG Version: 6.00 Build 0)  -->
<!DOCTYPE svg PUBLIC "-//W3C//DTD SVG 1.1//EN" "http://www.w3.org/Graphics/SVG/1.1/DTD/svg11.dtd">
<svg version="1.1" id="Layer_1" xmlns="http://www.w3.org/2000/svg" xmlns:xlink="http://www.w3.org/1999/xlink" x="0px" y="0px"
	 width="105px" height="110.879px" viewBox="23.5 0 105 110.879" enable-background="new 23.5 0 105 110.879" xml:space="preserve">
<g>
	<path fill="#B3B3B3" d="M42.354,88.749c18.418,18.42,48.254,18.403,66.649-0.004c18.383-18.394,18.388-48.25,0.006-66.624
		C90.611,3.719,60.764,3.723,42.367,22.133C23.967,40.53,23.967,70.359,42.354,88.749z"/>
	<path fill="#666" stroke="#ccc" stroke-width="4.5592" d="M46.989,84.124c15.847,15.858,41.54,15.854,57.38-0.002
		c15.844-15.834,15.846-41.544,0.013-57.377c-15.85-15.846-41.546-15.838-57.389,0.012C31.149,42.598,31.149,68.288,46.989,84.124z"
		/>
	<path fill="#ccc" d="M83.822,39.622c0,4.5-3.643,8.147-8.137,8.147c-4.505,0-8.145-3.647-8.145-8.147
		c0-4.49,3.64-8.135,8.145-8.135C80.179,31.487,83.822,35.132,83.822,39.622z"/>
	<path fill="#ccc" d="M81.605,60.219c0,3.27-2.654,5.922-5.92,5.922c-3.281,0-5.929-2.652-5.929-5.922
		c0-3.275,2.647-5.928,5.929-5.928C78.951,54.291,81.605,56.941,81.605,60.219z"/>
	<path fill="#ccc" d="M79.731,76.709c0,2.234-1.815,4.045-4.046,4.045c-2.243,0-4.051-1.811-4.051-4.045s1.808-4.053,4.051-4.053
		C77.916,72.657,79.731,74.475,79.731,76.709z"/>
	<path fill="#ccc" d="M63.421,48.967c0,2.236-1.81,4.047-4.05,4.047c-2.233,0-4.048-1.811-4.048-4.047
		c0-2.231,1.814-4.049,4.048-4.049C61.612,44.918,63.421,46.735,63.421,48.967z"/>
	<path fill="#ccc" d="M96.033,48.967c0,2.236-1.812,4.047-4.049,4.047c-2.232,0-4.043-1.811-4.043-4.047
		c0-2.231,1.811-4.049,4.043-4.049C94.221,44.918,96.033,46.735,96.033,48.967z"/>
</g>
</svg>
