<?xml version="1.0" encoding="utf-8"?>
<!-- Generator: Adobe Illustrator 21.0.0, SVG Export Plug-In . SVG Version: 6.00 Build 0)  -->
<svg version="1.1" id="Layer_1" xmlns="http://www.w3.org/2000/svg" xmlns:xlink="http://www.w3.org/1999/xlink" x="0px" y="0px"
	 viewBox="0 0 316.8 62.3" style="enable-background:new 0 0 316.8 62.3;" xml:space="preserve">
<style type="text/css">
	.st0{fill:#fff;}
	.st1{fill:#D13D27;}
	.st2{fill:#fff;}
</style>
<title>quickstart-logo-2</title>
<path class="st0" d="M44.4,41.2c8.9-10.7,7.5-26.5-3.2-35.4S14.7-1.6,5.8,9S-1.6,35.5,9,44.4c9.3,7.8,22.9,7.8,32.2,0L34.9,38
	c-7.1,5.4-17.2,3.9-22.6-3.2c-5.4-7.1-3.9-17.2,3.2-22.6c7.1-5.4,17.2-3.9,22.6,3.2c4.3,5.8,4.3,13.7,0,19.4L44.4,41.2z"/>
<circle class="st1" cx="25.1" cy="25.1" r="9.3"/>
<path class="st2" d="M315.9,9.1c-1.2,1.2-3.1,1.2-4.2,0s-1.2-3.1,0-4.2c1.2-1.2,3.1-1.2,4.2,0c0.6,0.6,0.9,1.3,0.9,2.1
	C316.8,7.7,316.5,8.5,315.9,9.1z M311.9,5.1c-0.5,0.5-0.8,1.1-0.8,1.8c0,0.7,0.3,1.4,0.8,1.9c1,1,2.7,1,3.7,0c0,0,0,0,0,0
	c1-1,1-2.7,0-3.7C314.6,4,313,4,311.9,5.1C311.9,5,311.9,5.1,311.9,5.1L311.9,5.1z M313.7,5.2c0.3,0,0.6,0,0.9,0.1
	c0.3,0.1,0.6,0.5,0.5,0.8c0,0.3-0.1,0.5-0.3,0.7c-0.1,0.1-0.3,0.1-0.5,0.2c0.2,0,0.4,0.1,0.6,0.3c0.1,0.2,0.2,0.3,0.2,0.5v0.2
	c0,0.1,0,0.2,0,0.2c0,0.1,0,0.1,0,0.2l0,0h-0.5V8.1c0-0.3-0.1-0.6-0.3-0.8c-0.2-0.1-0.4-0.1-0.6-0.1h-0.4v1.3h-0.6V5.2L313.7,5.2z
	 M314.3,5.8c-0.2-0.1-0.5-0.1-0.7-0.1h-0.5v1.2h0.5c0.2,0,0.4,0,0.6-0.1c0.3-0.1,0.4-0.5,0.3-0.8C314.5,5.9,314.4,5.8,314.3,5.8
	L314.3,5.8z"/>
<path class="st0" d="M82.8,33.1c0,9-5.3,13.4-14.3,13.4s-14.2-4.3-14.2-13.4V12.3h7.4v20.8c0,3.6,0.9,7.3,6.9,7.3
	c5.2,0,6.9-2.2,6.9-7.3V12.3h7.4L82.8,33.1z"/>
<path class="st0" d="M85.6,12.3h7.4v33.4h-7.4V12.3z"/>
<path class="st0" d="M110.7,45.8c-9.4,0.1-17.1-7.4-17.2-16.8s7.4-17.1,16.8-17.2c6.2-0.1,12,3.3,15,8.8c-2.9,1.5-3.1,1.6-6.3,3.2
	c-1.8-3-5-4.8-8.4-4.8c-5.5,0-9.9,4.4-9.9,9.9c0,5.5,4.4,9.9,9.9,9.9c3.6,0,7-2,8.7-5.2c3.2,1.6,3.3,1.8,6.3,3.2
	C122.8,42.3,117,45.8,110.7,45.8z"/>
<path class="st0" d="M156.1,45.7h-10.1l-8.7-9.4l-4.4,6v3.3h-7.5V12.2h7.5v19l13.1-19h9.1l-12.6,19L156.1,45.7z"/>
<path class="st0" d="M164.5,32.8c1,5.7,6.1,6.5,9.6,6.5c3.4,0,8.5-1,8.5-5.4c0-9.3-25.9-3.3-25.9-19.6c0-9,8.4-13.2,16.3-13.2
	c9.1,0,17.5,4,17.5,14l-9.3-1.3c-1.2-5.1-5.6-5.2-8.6-5.2s-6.6,1.3-6.6,4.9c0,3.2,2.1,4,13,6.6c3.2,0.8,12.9,2.8,12.9,12.7
	c0,8-6.2,14-18.1,14c-9.8,0-18.5-4.8-18.5-15.5L164.5,32.8z"/>
<path class="st0" d="M200.5,18.5h-10.6v-6.1h28.5v6.2h-10.5v27.2h-7.4L200.5,18.5z"/>
<path class="st0" d="M215.9,45.7l15.2-33.4h7.4l14.9,33.4h-7.1l-3.3-7.4h-16.9l-3.5,7.4H215.9z M234.9,18.6l-5.6,12.9h11.1
	L234.9,18.6L234.9,18.6z"/>
<path class="st0" d="M272.4,33.4l9.4,12.4h-9l-8.4-12h-3.6v12h-7.4V12.3h15.1c8.4,0,11.7,5.3,11.7,10.7c0,4.5-2.4,9.1-8,10.4
	L272.4,33.4z M260.8,18v10.1h5.7c3.5,0,6.4-0.8,6.4-5.1s-2.9-5-6.4-5L260.8,18z"/>
<path class="st0" d="M292.1,18.5h-10.6v-6.1H310v6.2h-10.5v27.2h-7.3V18.5z"/>
</svg>
